<svg fill="#fff" height="200px" width="200px" version="1.1" id="Layer_1" xmlns="http://www.w3.org/2000/svg" xmlns:xlink="http://www.w3.org/1999/xlink" viewBox="0 0 512 512" xml:space="preserve"><g id="SVGRepo_bgCarrier" stroke-width="0"></g><g id="SVGRepo_tracerCarrier" stroke-linecap="round" stroke-linejoin="round"></g><g id="SVGRepo_iconCarrier"> <g> <g> <path stroke="black" d="M155.804,205.902c-27.625,0-50.098,22.473-50.098,50.098s22.473,50.098,50.098,50.098 c28.788,0,52.979-23.076,77.68-50.098C208.782,228.978,184.593,205.902,155.804,205.902z"></path> </g> </g> <g> <g> <path d="M356.196,205.902c-28.788,0-52.979,23.076-77.68,50.098c24.7,27.022,48.891,50.098,77.68,50.098 c27.625,0,50.098-22.473,50.098-50.098S383.821,205.902,356.196,205.902z"></path> </g> </g> <g> <g> <path d="M256,0C114.844,0,0,114.839,0,256s114.844,256,256,256s256-114.839,256-256S397.156,0,256,0z M356.196,339.496 c-41.465,0-71.896-27.919-100.196-58.632c-28.3,30.713-58.73,58.632-100.196,58.632c-46.042,0-83.496-37.454-83.496-83.496 c0-46.042,37.454-83.496,83.496-83.496c41.465,0,71.896,27.919,100.196,58.632c28.3-30.713,58.73-58.632,100.196-58.632 c46.042,0,83.496,37.454,83.496,83.496C439.692,302.042,402.238,339.496,356.196,339.496z"></path> </g> </g> </g></svg>